<svg width="16" height="16" viewBox="0 0 16 16" fill="none" xmlns="http://www.w3.org/2000/svg">
<path d="M13.3333 3.99992C13.5032 4.00011 13.6667 4.06517 13.7902 4.18182C13.9138 4.29846 13.9882 4.45789 13.9981 4.62752C14.0081 4.79714 13.9529 4.96417 13.8438 5.09447C13.7348 5.22478 13.5801 5.30852 13.4113 5.32859L13.3333 5.33325H13.2793L12.6667 12.6666C12.6667 13.1767 12.4718 13.6676 12.1218 14.0388C11.7718 14.4099 11.2933 14.6333 10.784 14.6633L10.6667 14.6666H5.33333C4.26799 14.6666 3.39733 13.8339 3.33866 12.8333L3.33533 12.7219L2.71999 5.33325H2.66666C2.49674 5.33306 2.33331 5.268 2.20975 5.15135C2.08619 5.03471 2.01184 4.87528 2.00188 4.70566C1.99192 4.53603 2.04711 4.369 2.15617 4.2387C2.26523 4.10839 2.41993 4.02465 2.58866 4.00459L2.66666 3.99992H13.3333ZM7.00733 7.42659C6.86765 7.34344 6.7024 7.31419 6.54267 7.34434C6.38293 7.37449 6.23972 7.46196 6.13996 7.59031C6.0402 7.71865 5.99077 7.87902 6.00097 8.04125C6.01116 8.20349 6.08028 8.35641 6.19533 8.47125L7.05666 9.33325L6.19533 10.1953L6.13999 10.2579C6.03639 10.3919 5.98767 10.5603 6.00373 10.7289C6.01979 10.8975 6.09943 11.0537 6.22648 11.1658C6.35352 11.2778 6.51844 11.3372 6.68774 11.3321C6.85704 11.3269 7.01802 11.2575 7.13799 11.1379L7.99999 10.2766L8.86199 11.1379L8.92466 11.1933C9.05865 11.2969 9.22706 11.3456 9.39568 11.3295C9.56429 11.3135 9.72047 11.2338 9.83249 11.1068C9.94452 10.9797 10.004 10.8148 9.99881 10.6455C9.99364 10.4762 9.92423 10.3152 9.80466 10.1953L8.94333 9.33325L9.80466 8.47125L9.85999 8.40858C9.9636 8.27459 10.0123 8.10618 9.99626 7.93757C9.9802 7.76895 9.90056 7.61277 9.77351 7.50075C9.64647 7.38873 9.48155 7.32926 9.31225 7.33443C9.14295 7.3396 8.98197 7.40902 8.86199 7.52858L7.99999 8.38992L7.13799 7.52858L7.07533 7.47325L7.00733 7.42659Z" fill="#B4392F"/>
<path d="M9.33333 1.33325C9.68696 1.33325 10.0261 1.47373 10.2761 1.72378C10.5262 1.97382 10.6667 2.31296 10.6667 2.66659C10.6665 2.8365 10.6014 2.99994 10.4848 3.1235C10.3681 3.24705 10.2087 3.32141 10.0391 3.33137C9.86944 3.34132 9.70241 3.28614 9.57211 3.17708C9.44181 3.06802 9.35807 2.91332 9.338 2.74459L9.33333 2.66659H6.66667L6.662 2.74459C6.64193 2.91332 6.55819 3.06802 6.42789 3.17708C6.29759 3.28614 6.13056 3.34132 5.96093 3.33137C5.7913 3.32141 5.63188 3.24705 5.51523 3.1235C5.39859 2.99994 5.33352 2.8365 5.33333 2.66659C5.33323 2.3302 5.46027 2.00621 5.689 1.75955C5.91773 1.5129 6.23123 1.36181 6.56667 1.33659L6.66667 1.33325H9.33333Z" fill="#B4392F"/>
<path d="M13.3333 3.99992C13.5032 4.00011 13.6667 4.06517 13.7902 4.18182C13.9138 4.29846 13.9882 4.45789 13.9981 4.62752C14.0081 4.79714 13.9529 4.96417 13.8438 5.09447C13.7348 5.22478 13.5801 5.30852 13.4113 5.32859L13.3333 5.33325H13.2793L12.6667 12.6666C12.6667 13.1767 12.4718 13.6676 12.1218 14.0388C11.7718 14.4099 11.2933 14.6333 10.784 14.6633L10.6667 14.6666H5.33333C4.26799 14.6666 3.39733 13.8339 3.33866 12.8333L3.33533 12.7219L2.71999 5.33325H2.66666C2.49674 5.33306 2.33331 5.268 2.20975 5.15135C2.08619 5.03471 2.01184 4.87528 2.00188 4.70566C1.99192 4.53603 2.04711 4.369 2.15617 4.2387C2.26523 4.10839 2.41993 4.02465 2.58866 4.00459L2.66666 3.99992H13.3333ZM7.00733 7.42659C6.86765 7.34344 6.7024 7.31419 6.54267 7.34434C6.38293 7.37449 6.23972 7.46196 6.13996 7.59031C6.0402 7.71865 5.99077 7.87902 6.00097 8.04125C6.01116 8.20349 6.08028 8.35641 6.19533 8.47125L7.05666 9.33325L6.19533 10.1953L6.13999 10.2579C6.03639 10.3919 5.98767 10.5603 6.00373 10.7289C6.01979 10.8975 6.09943 11.0537 6.22648 11.1658C6.35352 11.2778 6.51844 11.3372 6.68774 11.3321C6.85704 11.3269 7.01802 11.2575 7.13799 11.1379L7.99999 10.2766L8.86199 11.1379L8.92466 11.1933C9.05865 11.2969 9.22706 11.3456 9.39568 11.3295C9.56429 11.3135 9.72047 11.2338 9.83249 11.1068C9.94452 10.9797 10.004 10.8148 9.99881 10.6455C9.99364 10.4762 9.92423 10.3152 9.80466 10.1953L8.94333 9.33325L9.80466 8.47125L9.85999 8.40858C9.9636 8.27459 10.0123 8.10618 9.99626 7.93757C9.9802 7.76895 9.90056 7.61277 9.77351 7.50075C9.64647 7.38873 9.48155 7.32926 9.31225 7.33443C9.14295 7.3396 8.98197 7.40902 8.86199 7.52858L7.99999 8.38992L7.13799 7.52858L7.07533 7.47325L7.00733 7.42659Z" stroke="#B4392F"/>
<path d="M9.33333 1.33325C9.68696 1.33325 10.0261 1.47373 10.2761 1.72378C10.5262 1.97382 10.6667 2.31296 10.6667 2.66659C10.6665 2.8365 10.6014 2.99994 10.4848 3.1235C10.3681 3.24705 10.2087 3.32141 10.0391 3.33137C9.86944 3.34132 9.70241 3.28614 9.57211 3.17708C9.44181 3.06802 9.35807 2.91332 9.338 2.74459L9.33333 2.66659H6.66667L6.662 2.74459C6.64193 2.91332 6.55819 3.06802 6.42789 3.17708C6.29759 3.28614 6.13056 3.34132 5.96093 3.33137C5.7913 3.32141 5.63188 3.24705 5.51523 3.1235C5.39859 2.99994 5.33352 2.8365 5.33333 2.66659C5.33323 2.3302 5.46027 2.00621 5.689 1.75955C5.91773 1.5129 6.23123 1.36181 6.56667 1.33659L6.66667 1.33325H9.33333Z" stroke="#B4392F"/>
</svg>
